<svg xmlns="http://www.w3.org/2000/svg" width="39.827" height="27.549" viewBox="0 0 39.827 27.549">
  <g id="Group_25" data-name="Group 25" transform="translate(-493.5 -658.25)">
    <path id="Icon_awesome-list-alt" data-name="Icon awesome-list-alt" d="M2.952,29.8H28.533a2.952,2.952,0,0,0,2.952-2.952V5.2A2.952,2.952,0,0,0,28.533,2.25H2.952A2.952,2.952,0,0,0,0,5.2V26.847A2.952,2.952,0,0,0,2.952,29.8ZM23.613,7.661a2.46,2.46,0,1,1-2.46,2.46A2.46,2.46,0,0,1,23.613,7.661Zm0,5.9a2.46,2.46,0,1,1-2.46,2.46A2.46,2.46,0,0,1,23.613,13.565Zm0,5.9a2.46,2.46,0,1,1-2.46,2.46A2.46,2.46,0,0,1,23.613,19.468ZM5.9,11.1V9.137A.738.738,0,0,1,6.641,8.4h12.3a.738.738,0,0,1,.738.738V11.1a.738.738,0,0,1-.738.738H6.641A.738.738,0,0,1,5.9,11.1Zm0,5.9V15.04a.738.738,0,0,1,.738-.738h12.3a.738.738,0,0,1,.738.738v1.968a.738.738,0,0,1-.738.738H6.641A.738.738,0,0,1,5.9,17.008Zm0,5.9V20.944a.738.738,0,0,1,.738-.738h12.3a.738.738,0,0,1,.738.738v1.968a.738.738,0,0,1-.738.738H6.641A.738.738,0,0,1,5.9,22.911Z" transform="translate(493.5 656)" fill="#fff"/>
    <circle id="Ellipse_59" class="transparent-background-circle" data-name="Ellipse 59" cx="10" cy="10" r="10" transform="translate(509.924 662.184)" fill="#2C305F"/>
    <path id="Icon_awesome-search" data-name="Icon awesome-search" d="M21.355,18.721,17.139,14.5a1.014,1.014,0,0,0-.719-.3h-.689a8.792,8.792,0,1,0-1.522,1.522v.689a1.014,1.014,0,0,0,.3.719l4.216,4.216a1.011,1.011,0,0,0,1.434,0l1.2-1.2a1.02,1.02,0,0,0,0-1.438ZM8.8,14.209A5.413,5.413,0,1,1,14.209,8.8,5.41,5.41,0,0,1,8.8,14.209Z" transform="translate(511.677 663.937)" fill="#fff"/>
  </g>
</svg>
