<svg xmlns="http://www.w3.org/2000/svg" width="57.714" height="50.5" viewBox="0 0 57.714 50.5">
  <path id="Icon_awesome-comment-medical" data-name="Icon awesome-comment-medical" d="M28.857,2.25C12.92,2.25,0,12.747,0,25.7A20.841,20.841,0,0,0,6.425,40.434C5.012,46.1.3,51.172.248,51.228A.9.9,0,0,0,.9,52.75a25.771,25.771,0,0,0,15.849-5.792,34.342,34.342,0,0,0,12.106,2.185c15.938,0,28.857-10.5,28.857-23.446S44.8,2.25,28.857,2.25ZM39.679,28.4a.9.9,0,0,1-.9.9H32.464v6.313a.9.9,0,0,1-.9.9H26.152a.9.9,0,0,1-.9-.9V29.3H18.938a.9.9,0,0,1-.9-.9V22.991a.9.9,0,0,1,.9-.9H25.25V15.777a.9.9,0,0,1,.9-.9h5.411a.9.9,0,0,1,.9.9v6.312h6.312a.9.9,0,0,1,.9.9Z" transform="translate(0 -2.25)" fill="#fff"/>
</svg>
