<svg xmlns="http://www.w3.org/2000/svg" width="34.347" height="30.524" viewBox="0 0 34.347 30.524">
  <path id="Icon_awesome-edit" fill="#000" data-name="Icon awesome-edit" d="M24.007,4.962l5.379,5.379a.583.583,0,0,1,0,.823L16.362,24.187l-5.534.614a1.16,1.16,0,0,1-1.282-1.282l.614-5.534L23.184,4.962A.583.583,0,0,1,24.007,4.962ZM33.667,3.6,30.757.687a2.332,2.332,0,0,0-3.292,0L25.355,2.8a.583.583,0,0,0,0,.823L30.733,9a.583.583,0,0,0,.823,0l2.111-2.111a2.332,2.332,0,0,0,0-3.292ZM22.9,20.645v6.07H3.816V7.634h13.7a.733.733,0,0,0,.507-.209L20.411,5.04A.716.716,0,0,0,19.9,3.817H2.862A2.863,2.863,0,0,0,0,6.68v20.99a2.863,2.863,0,0,0,2.862,2.862h20.99a2.863,2.863,0,0,0,2.862-2.862V18.26a.717.717,0,0,0-1.222-.507l-2.385,2.385A.733.733,0,0,0,22.9,20.645Z" transform="translate(0 -0.007)"/>
</svg>
