<svg xmlns="http://www.w3.org/2000/svg" width="28.704" height="29.879" viewBox="0 0 28.704 29.879">
  <g id="Group_56" data-name="Group 56" transform="translate(-564.75 -563.561)">
    <path id="Icon_awesome-phone-alt" data-name="Icon awesome-phone-alt" d="M26.828,19.514l-6.041-2.589a1.294,1.294,0,0,0-1.51.372L16.6,20.566a19.992,19.992,0,0,1-9.557-9.557l3.269-2.675a1.291,1.291,0,0,0,.372-1.51L8.1.783A1.3,1.3,0,0,0,6.613.033L1,1.327A1.294,1.294,0,0,0,0,2.589,25.024,25.024,0,0,0,25.027,27.616a1.294,1.294,0,0,0,1.262-1L27.584,21a1.31,1.31,0,0,0-.756-1.489Z" transform="translate(564.75 565.824)"/>
    <path id="Icon_map-health" data-name="Icon map-health" d="M14.652,5.364a.291.291,0,0,0-.29-.29H10.589a.291.291,0,0,1-.29-.29V1.01a.291.291,0,0,0-.29-.29H5.364a.291.291,0,0,0-.29.29V4.784a.291.291,0,0,1-.29.29H1.01a.291.291,0,0,0-.29.29v4.644a.291.291,0,0,0,.29.29H4.784a.291.291,0,0,1,.29.29v3.773a.291.291,0,0,0,.29.29h4.644a.291.291,0,0,0,.29-.29V10.589a.291.291,0,0,1,.29-.29h3.773a.291.291,0,0,0,.29-.29Z" transform="translate(578.802 562.841)"/>
  </g>
</svg>
