<svg xmlns="http://www.w3.org/2000/svg" width="37.464" height="28.098" viewBox="0 0 37.464 28.098">
  <path id="Icon_metro-profile" data-name="Icon metro-profile" d="M39.287,11.726h-2.62V7.8l-5.408-.083.028,4.014H15.036l.111-4.014-5.3.083v4.014l-2.676-.083A2.677,2.677,0,0,0,4.5,14.4V33.134A2.677,2.677,0,0,0,7.175,35.81H39.287a2.677,2.677,0,0,0,2.676-2.676V14.4A2.677,2.677,0,0,0,39.287,11.726ZM32.6,9.05h2.676V14.4H32.6ZM15.2,18.165c1.616,0,2.928,1.722,2.928,3.847s-1.311,3.847-2.928,3.847-2.928-1.722-2.928-3.847,1.311-3.847,2.928-3.847ZM11.189,9.05h2.676V14.4H11.189ZM9.405,30.389s.317-2.545,1.038-3.025a10.262,10.262,0,0,1,2.8-.8S14.586,28,15.159,28s1.917-1.438,1.917-1.438a10.23,10.23,0,0,1,2.8.8c.847.565,1.058,3.025,1.058,3.025H9.405ZM36.611,29.12H24.569V27.782H36.611Zm0-2.676H24.569V25.106H36.611Zm0-2.676H24.569V22.43H36.611Zm0-2.676H24.569V19.754H36.611Z" transform="translate(-4.499 -7.712)" fill="#fff"/>
</svg>
