<svg xmlns="http://www.w3.org/2000/svg" width="27" height="36" viewBox="0 0 27 36">
  <path id="Icon_awesome-clipboard" data-name="Icon awesome-clipboard" d="M27,7.875v24.75A3.375,3.375,0,0,1,23.625,36H3.375A3.375,3.375,0,0,1,0,32.625V7.875A3.375,3.375,0,0,1,3.375,4.5H9a4.5,4.5,0,0,1,9,0h5.625A3.375,3.375,0,0,1,27,7.875ZM13.5,2.813A1.688,1.688,0,1,0,15.188,4.5,1.687,1.687,0,0,0,13.5,2.813m6.75,8.016V9.422A.422.422,0,0,0,19.828,9H7.172a.422.422,0,0,0-.422.422v1.406a.422.422,0,0,0,.422.422H19.828A.422.422,0,0,0,20.25,10.828Z"fill="#000"//>
  <path id="Icon_awesome-lock" data-name="Icon awesome-lock" d="M8.4,5.377H7.9V3.649A3.448,3.448,0,0,0,4.706,0,3.448,3.448,0,0,0,1.513,3.649V5.377h-.5A1.088,1.088,0,0,0,0,6.53v4.609a1.088,1.088,0,0,0,1.008,1.152H8.4a1.088,1.088,0,0,0,1.008-1.152V6.53A1.088,1.088,0,0,0,8.4,5.377Zm-2.185,0H3.193V3.649A1.633,1.633,0,0,1,4.706,1.921,1.633,1.633,0,0,1,6.218,3.649Z" transform="translate(8.794 17.5)" fill="#fff"/>
</svg>
