<svg xmlns="http://www.w3.org/2000/svg" width="56.767" height="76.705" viewBox="0 0 56.767 76.705">
  <path id="Icon_awesome-file-medical" fill="#2f2d5d" data-name="Icon awesome-file-medical" d="M55.732,15.73,41.26,1.049A3.521,3.521,0,0,0,38.746,0h-.9V19.176H56.767v-.914A3.609,3.609,0,0,0,55.732,15.73ZM33.114,20.375V0H3.548A3.563,3.563,0,0,0,0,3.6V73.109a3.563,3.563,0,0,0,3.548,3.6H53.219a3.563,3.563,0,0,0,3.548-3.6V23.97h-20.1A3.582,3.582,0,0,1,33.114,20.375Zm9.461,23.97v7.191a1.194,1.194,0,0,1-1.183,1.2H33.114v8.39a1.194,1.194,0,0,1-1.183,1.2h-7.1a1.194,1.194,0,0,1-1.183-1.2v-8.39H15.374a1.194,1.194,0,0,1-1.183-1.2V44.345a1.194,1.194,0,0,1,1.183-1.2h8.279v-8.39a1.194,1.194,0,0,1,1.183-1.2h7.1a1.194,1.194,0,0,1,1.183,1.2v8.39h8.279A1.194,1.194,0,0,1,42.575,44.345Z" />
</svg>
