<svg xmlns="http://www.w3.org/2000/svg" width="36" height="27" viewBox="0 0 36 27">
  <path id="Icon_awesome-folder-plus" data-name="Icon awesome-folder-plus" d="M32.625,9h-13.5l-4.5-4.5H3.375A3.375,3.375,0,0,0,0,7.875v20.25A3.375,3.375,0,0,0,3.375,31.5h29.25A3.375,3.375,0,0,0,36,28.125V12.375A3.375,3.375,0,0,0,32.625,9Zm-6.75,11.813a1.125,1.125,0,0,1-1.125,1.125H19.688V27a1.125,1.125,0,0,1-1.125,1.125H17.438A1.125,1.125,0,0,1,16.313,27V21.938H11.25a1.125,1.125,0,0,1-1.125-1.125V19.688a1.125,1.125,0,0,1,1.125-1.125h5.063V13.5a1.125,1.125,0,0,1,1.125-1.125h1.125A1.125,1.125,0,0,1,19.688,13.5v5.063H24.75a1.125,1.125,0,0,1,1.125,1.125Z" transform="translate(0 -4.5)" fill="#fff"/>
</svg>
