<svg xmlns="http://www.w3.org/2000/svg" width="27" height="36" viewBox="0 0 27 36">
  <path fill="#000000" id="Icon_awesome-notes-medical" data-name="Icon awesome-notes-medical" d="M23.625,4.5H18a4.5,4.5,0,0,0-9,0H3.375A3.376,3.376,0,0,0,0,7.875v24.75A3.376,3.376,0,0,0,3.375,36h20.25A3.376,3.376,0,0,0,27,32.625V7.875A3.376,3.376,0,0,0,23.625,4.5ZM13.5,2.813A1.688,1.688,0,1,1,11.813,4.5,1.683,1.683,0,0,1,13.5,2.813Zm6.75,21.375a.564.564,0,0,1-.562.563H15.75v3.938a.564.564,0,0,1-.562.563H11.813a.564.564,0,0,1-.562-.562V24.75H7.313a.564.564,0,0,1-.562-.562V20.813a.564.564,0,0,1,.563-.562H11.25V16.313a.564.564,0,0,1,.563-.562h3.375a.564.564,0,0,1,.563.563V20.25h3.938a.564.564,0,0,1,.563.563Zm0-13.5a.564.564,0,0,1-.562.563H7.313a.564.564,0,0,1-.562-.562V9.563A.564.564,0,0,1,7.313,9H19.688a.564.564,0,0,1,.563.563Z"/>
</svg>
