<svg xmlns="http://www.w3.org/2000/svg" width="26.931" height="33.684" viewBox="0 0 26.931 33.684">
  <g id="Icon_ionic-ios-notifications" data-name="Icon ionic-ios-notifications" transform="translate(-6.761 -3.93)">
    <path id="Path_20" data-name="Path 20" d="M18.662,32.8c2.618,0,4.049-1.852,4.049-4.462H14.6C14.6,30.946,16.035,32.8,18.662,32.8Z" transform="translate(1.548 4.816)" fill="#fff"/>
    <path id="Path_21" data-name="Path 21" d="M33.351,28.875c-1.3-1.709-3.847-2.711-3.847-10.364,0-7.855-3.469-11.012-6.7-11.769-.3-.076-.522-.177-.522-.5V6a2.054,2.054,0,1,0-4.108,0v.244c0,.311-.219.421-.522.5-3.241.766-6.7,3.915-6.7,11.769,0,7.653-2.551,8.646-3.847,10.364A1.671,1.671,0,0,0,8.44,31.553H32.021A1.671,1.671,0,0,0,33.351,28.875Z" transform="translate(0 0)" fill="#fff"/>
  </g>
</svg>
