<svg xmlns="http://www.w3.org/2000/svg" width="34.448" height="26.086" viewBox="0 0 34.448 26.086">
  <path id="Icon_metro-credit-card" data-name="Icon metro-credit-card" d="M32.883,5.784H5.706A3.145,3.145,0,0,0,2.571,8.92V27.735A3.145,3.145,0,0,0,5.706,30.87H32.883a3.145,3.145,0,0,0,3.136-3.136V8.92A3.145,3.145,0,0,0,32.883,5.784ZM5.706,7.875H32.883A1.059,1.059,0,0,1,33.928,8.92v3.136H4.661V8.92A1.059,1.059,0,0,1,5.706,7.875ZM32.883,28.78H5.706a1.059,1.059,0,0,1-1.045-1.045V18.327H33.928v9.407a1.059,1.059,0,0,1-1.045,1.045ZM6.752,22.508H8.842v4.181H6.752Zm4.181,0h2.091v4.181H10.933Zm4.181,0H17.2v4.181H15.114Z" transform="translate(-2.071 -5.284)" fill="#fff"/>
</svg>
