<svg xmlns="http://www.w3.org/2000/svg" width="31.504" height="25.987" viewBox="0 0 31.504 25.987">
  <path id="Icon_awesome-arrow-right" fill="#fff" data-name="Icon awesome-arrow-right" d="M13.395,4.388l1.561-1.321a1.9,1.9,0,0,1,2.384,0L31.008,14.629a1.274,1.274,0,0,1,0,2.017L17.339,28.215a1.9,1.9,0,0,1-2.384,0l-1.561-1.321a1.282,1.282,0,0,1,.028-2.041L21.9,18.021H1.688A1.57,1.57,0,0,1,0,16.593v-1.9a1.57,1.57,0,0,1,1.688-1.428H21.9L13.423,6.429A1.274,1.274,0,0,1,13.395,4.388Z" transform="translate(0 -2.647)"/>
</svg>
