<!-- <svg xmlns="http://www.w3.org/2000/svg" width="27" height="27.007" viewBox="0 0 27 27.007">
  <path id="Icon_ionic-ios-search" data-name="Icon ionic-ios-search" d="M31.184,29.545l-7.509-7.58a10.7,10.7,0,1,0-1.624,1.645l7.46,7.53a1.156,1.156,0,0,0,1.631.042A1.163,1.163,0,0,0,31.184,29.545ZM15.265,23.7a8.45,8.45,0,1,1,5.977-2.475A8.4,8.4,0,0,1,15.265,23.7Z" transform="translate(-4.5 -4.493)"/>
</svg> -->
<svg xmlns="http://www.w3.org/2000/svg" width="24.656" height="24.66" viewBox="0 0 24.656 24.66">
  <path id="Icon_awesome-search" data-name="Icon awesome-search" d="M24.32,21.32l-4.8-4.8a1.155,1.155,0,0,0-.819-.337h-.785a10.012,10.012,0,1,0-1.734,1.734V18.7a1.155,1.155,0,0,0,.337.819l4.8,4.8a1.151,1.151,0,0,0,1.633,0l1.363-1.363a1.161,1.161,0,0,0,0-1.637Zm-14.3-5.139a6.164,6.164,0,1,1,6.164-6.164A6.161,6.161,0,0,1,10.017,16.181Z" fill="#fff"/>
</svg>
