<svg xmlns="http://www.w3.org/2000/svg" width="32.107" height="32.107" viewBox="0 0 32.107 32.107">
  <path id="Icon_ionic-md-settings" data-name="Icon ionic-md-settings" d="M31.62,21.034a10.039,10.039,0,0,0,.082-1.605c0-.562-.082-1.043-.082-1.605l3.447-2.649a.737.737,0,0,0,.164-1.043L31.948,8.592a.8.8,0,0,0-.985-.321l-4.1,1.605a11.949,11.949,0,0,0-2.791-1.605l-.575-4.254a.88.88,0,0,0-.821-.642H16.1a.88.88,0,0,0-.821.642l-.657,4.254a13.9,13.9,0,0,0-2.792,1.605l-4.1-1.605a.769.769,0,0,0-.985.321L3.46,14.131a.969.969,0,0,0,.164,1.043l3.53,2.649c0,.562-.082,1.043-.082,1.605s.082,1.043.082,1.605L3.707,23.682a.737.737,0,0,0-.164,1.043l3.284,5.539a.8.8,0,0,0,.985.321l4.1-1.605a11.948,11.948,0,0,0,2.791,1.605l.657,4.254a.8.8,0,0,0,.821.642h6.568a.88.88,0,0,0,.821-.642l.657-4.254a13.894,13.894,0,0,0,2.791-1.605l4.1,1.605a.769.769,0,0,0,.985-.321L35.4,24.726a.968.968,0,0,0-.164-1.043ZM19.387,25.047a5.62,5.62,0,1,1,0-11.237,5.62,5.62,0,1,1,0,11.237Z" transform="translate(-3.375 -3.375)" fill="#fff"/>
</svg>
