<svg xmlns="http://www.w3.org/2000/svg" width="23.368" height="33.75" viewBox="0 0 23.368 33.75">
  <path id="Icon_awesome-trash-alt" fill="#000" data-name="Icon awesome-trash-alt" d="M1.669,30.586c0,1.747,1.121,3.164,2.5,3.164H19.2c1.383,0,2.5-1.417,2.5-3.164V8.438H1.669ZM15.857,13.711a.964.964,0,0,1,.835-1.055.964.964,0,0,1,.835,1.055V28.477a.964.964,0,0,1-.835,1.055.964.964,0,0,1-.835-1.055Zm-5.008,0a.964.964,0,0,1,.835-1.055.964.964,0,0,1,.835,1.055V28.477a.964.964,0,0,1-.835,1.055.964.964,0,0,1-.835-1.055Zm-5.008,0a.964.964,0,0,1,.835-1.055.964.964,0,0,1,.835,1.055V28.477a.964.964,0,0,1-.835,1.055.964.964,0,0,1-.835-1.055Zm16.692-11.6H16.274L15.784.877A1.258,1.258,0,0,0,14.663,0H8.7A1.246,1.246,0,0,0,7.584.877l-.49,1.233H.835A.964.964,0,0,0,0,3.164V5.273A.964.964,0,0,0,.835,6.328h21.7a.964.964,0,0,0,.835-1.055V3.164A.964.964,0,0,0,22.534,2.109Z"/>
</svg>
