<svg xmlns="http://www.w3.org/2000/svg" width="30" height="33.5" viewBox="0 0 42 33.5">
  <g id="Group_55" data-name="Group 55" transform="translate(-564.75 -694.061)">
    <path id="Icon_material-person" data-name="Icon material-person" d="M18,18a6,6,0,1,0-6-6A6,6,0,0,0,18,18Zm0,3c-4.005,0-12,2.01-12,6v3H30V27C30,23.01,22.005,21,18,21Z" transform="translate(558.75 697.561)"/>
    <path id="Icon_material-person-2" data-name="Icon material-person" d="M18,18a6,6,0,1,0-6-6A6,6,0,0,0,18,18Zm0,3c-4.005,0-12,2.01-12,6v3H30V27C30,23.01,22.005,21,18,21Z" transform="translate(576.75 688.061)"/>
  </g>
</svg>
